<?xml version="1.0" encoding="utf-8"?>
<!-- Generator: Adobe Illustrator 24.0.2, SVG Export Plug-In . SVG Version: 6.00 Build 0)  -->
<svg version="1.1" id="Layer_1" xmlns="http://www.w3.org/2000/svg" xmlns:xlink="http://www.w3.org/1999/xlink" x="0px" y="0px"
	 viewBox="0 0 328.7 366.7" style="enable-background:new 0 0 328.7 366.7;" xml:space="preserve">
<style type="text/css">
	.st0{fill-rule:evenodd;clip-rule:evenodd;fill:#ABABAB;}
	.st1{fill-rule:evenodd;clip-rule:evenodd;fill:#B9B9B9;}
	.st2{fill-rule:evenodd;clip-rule:evenodd;fill:#FEFEFE;}
</style>
<title>technologies-icons-1</title>
<g id="Capa_1">
	<g id="_2312253083808">
		<path class="st0" d="M163.2,61.6l95.2,202.2h-32.9c-1.2-2.4-17.6-42.3-20-47h-42.3v121l62.3-34.1c1.2-1.2,2.4-1.2,3.5-2.4
			c1.4-0.5,2.6-1.3,3.6-2.4c2.8-1,5.6-2.2,8.2-3.6c12.9-7.1,28.2-16.5,40-22.3c8.2-4.7,7-3.6,9.4-16.5
			c5.9-51.7,12.9-104.6,18.8-156.3l3.5-24.7c-3.1-1.4-6.2-2.6-9.4-3.6c-2.4-1.2-5.9-1.2-8.2-2.4L163.2,25.1V61.6z"/>
		<path class="st1" d="M163.2,337.8V216.7h-37.6c-2.4,1.2-9.4,20-10.6,22.3c-2.4,7-7,16.5-8.2,23.5l-34.1,1.2l90.5-202.2V25.1
			L126.7,38c-22.3,8.2-50.5,16.5-72.9,25.9L35,69.8c-2.6,1.4-5.4,2.6-8.2,3.6l-9.4,3.6c0,7,20,176.3,20,182.2
			c2.4,16.5,0,8.2,27,24.7c12.9,8.2,34.1,18.8,48.2,27l41.1,22.3C156.7,335.2,159.8,336.7,163.2,337.8z"/>
		<path class="st2" d="M163.2,128.6c0-1.2-1.2-1.2,0-2.4l30.6,63.5h-57.6l12.9-30.6C151.4,153.2,160.8,130.9,163.2,128.6z
			 M163.2,216.7h42.3c2.4,4.7,18.8,44.7,20,47h32.9L163.2,61.6L72.7,263.8l34.1-1.2c1.2-7,5.9-16.5,8.2-23.5
			c1.2-2.4,8.2-21.2,10.6-22.3L163.2,216.7z"/>
		<path class="st0" d="M163.2,128.6v61.1h30.6l-30.6-63.5C162,127.4,163.2,127.4,163.2,128.6z"/>
		<path class="st1" d="M163.2,189.7v-61.1c-2.4,2.4-11.8,24.7-14.1,30.6l-12.9,30.6H163.2z"/>
	</g>
</g>
</svg>
