<?xml version="1.0" encoding="utf-8"?>
<!-- Generator: Adobe Illustrator 24.0.2, SVG Export Plug-In . SVG Version: 6.00 Build 0)  -->
<svg version="1.1" id="Layer_1" xmlns="http://www.w3.org/2000/svg" xmlns:xlink="http://www.w3.org/1999/xlink" x="0px" y="0px"
	 viewBox="0 0 1009.3 366.7" style="enable-background:new 0 0 1009.3 366.7;" xml:space="preserve">
<style type="text/css">
	.st0{fill-rule:evenodd;clip-rule:evenodd;fill:#C0C0C0;}
	.st1{fill-rule:evenodd;clip-rule:evenodd;fill:#B8B8B8;}
	.st2{fill-rule:evenodd;clip-rule:evenodd;fill:#686868;}
	.st3{fill-rule:evenodd;clip-rule:evenodd;fill:#B3B3B3;}
</style>
<title>technologies-icons-1</title>
<g id="Capa_1">
	<g id="_2312253119520">
		<path class="st0" d="M147.6,131.2l-24.1,25.3c-3.5,4.6-69,69-75.9,77c-5.7,5.7-20.7,21.8-26.4,25.3c0,2.3,2.3,0-1.2,2.3l-1.2,1.2
			c3.5,1.2,2.3,1.2,2.3,1.2L71.8,291c2.3,1.2,1.2,1.2,3.5,2.3s1.2,1.2,3.5,1.2c4.6,3.5,1.2,2.3,8,5.7l21.8,11.5
			c9.2,4.6,17.2,1.2,23-2.3l24-13.9c5.7-3.5,57.5-32.2,60.9-33.3l-18.4-114.9c-1-9.7-2.5-19.3-4.6-28.7c-1.2-9.2-1.2-24.1-11.5-20.7
			C176.4,100.2,155.7,126.6,147.6,131.2z"/>
		<path class="st1" d="M20.1,261.1c3.5-2.3,1.2,0,1.2-2.3c0-4.6,16.1-31,19.5-37.9l48.3-91.9c2.3-4.7,5.7-14.9,10.3-17.2
			c2.3,2.3,9.2,17.2,11.5,21.8c2.3,3.5,12.6,20.7,12.6,23l24.1-25.3c0-4.6-17.2-35.6-21.8-43.7c-10.3-19.5-17.2,5.7-21.8,12.7
			l-3.5,5.7c-1.2,2.3,0,1.2-2.3,2.3L62.6,42.7h-8c0,1.2-1.2,1.2-1.2,2.3c-2.3,3.5-1.2,4.7-2.3,6.9c0,11.5-5.7,36.8-6.9,48.3v3.5H43
			v2.3c0.1,2.4-0.3,4.7-1.2,6.9l-5.7,36.8v4.6l-12.6,75.8C22.4,239.3,20.1,254.2,20.1,261.1z"/>
		<path class="st2" d="M647.6,238.1c-40.2,0-40.2-69,0-69C687.8,169.2,687.8,238.1,647.6,238.1z M599.3,253.1h17.3v-12.6
			c4.7,2.3,11.5,14.9,33.3,14.9c25.3,0,46-23,46-48.3c0-20.7-3.5-33.3-19.5-46c-14.9-12.7-41.4-11.5-52.9,0
			c-2.3,2.3-3.5,4.6-6.9,5.7c0-2.3,1.2-3.4,1.2-6.9v-49.4h-18.4L599.3,253.1z"/>
		<path class="st2" d="M745.3,238.1c-27.6,0-27.6-33.3,8-33.3c16.1,0,25.3,4.6,17.2,18.4C766,231.2,755.7,238.1,745.3,238.1z
			 M708.5,176.1c4.6,2.3,14.9,6.9,19.5,6.9c1.2-16.1,46-23,46,10.3c-23-11.5-67.8-2.3-67.8,25.3c0,12.6-1.2,19.5,10.4,28.7
			c13.8,11.5,39.1,11.5,51.7-1.2c2.3-2.3,3.5-4.6,5.7-5.7v12.6h18.4V191c0-42.5-60.9-51.7-80.5-20.7
			C711.1,172.4,709.9,174.3,708.5,176.1L708.5,176.1z"/>
		<path class="st2" d="M537.3,169.2c14.9,0,26.4,10.4,27.6,23h-55.2C514.3,183,518.9,169.2,537.3,169.2z M489,202.5
			c0,6.9,2.3,17.2,4.6,21.8c10.3,29.9,46,40.2,72.4,24.1c5.7-3.5,14.9-12.6,16.1-20.7c-5.7-2.3-11.5-3.4-17.2-6.9
			c-6.9,12.6-11.5,17.2-28.7,17.2c-12.6,0-27.6-13.8-27.6-31h77c0-19.5-6.9-42.5-26.4-50.6C520,139.3,489,170.3,489,202.5L489,202.5
			z"/>
		<path class="st2" d="M940.7,169.2c14.9,0,26.4,10.4,27.6,23h-54C915.4,180.7,928.1,169.2,940.7,169.2z M893.6,199
			c0,17.2,1.2,31,13.8,43.7c4.7,3.5,9.2,6.9,14.9,9.2c14.9,5.7,34.5,4.6,47.1-4.6c9.2-5.7,11.5-10.3,16.1-19.5
			c-5.7-1.2-11.5-4.6-17.2-6.9c-6.9,26.4-55.2,23-56.3-13.8h77v-5.7c0-54-59.8-59.8-81.6-35.6C898.7,174.7,893.8,186.6,893.6,199z"
			/>
		<polygon class="st2" points="291.3,253.1 310.9,253.1 310.9,192.2 368.3,192.2 368.3,173.8 310.9,173.8 310.9,128.9 375.2,128.9 
			375.2,110.5 291.3,110.5 		"/>
		<path class="st2" d="M806.2,178.4v5.7c0,12.6,13.8,20.7,25.3,24.1c13.8,4.6,32.2,3.5,32.2,18.4c0,5.7-8,11.5-13.8,11.5
			c-16.1,0-21.8-1.2-29.9-17.2c-5.7,1.2-11.5,4.6-17.2,5.7c0,8,9.2,16.1,14.9,20.7c21.8,17.2,65.5,6.9,65.5-19.5
			c0-9.2-1.2-16.1-6.9-21.8c-16.1-16.1-50.6-8-50.6-25.3c0-12.6,24.1-13.8,33.3-6.9c3.5,1.2,4.6,4.6,6.9,8c2.6-1.4,5.3-2.5,8-3.5
			c2.8-1,5.5-2.1,8-3.5c-8-14.9-18.4-23-39.1-23C826.9,151.9,806.2,162.3,806.2,178.4z"/>
		<path class="st3" d="M21.2,258.8c5.7-3.5,20.7-19.5,26.4-25.3c6.9-8,72.4-72.4,75.9-77c0-2.3-10.3-19.5-12.6-23
			c-2.3-4.6-9.2-19.5-11.5-21.8c-4.6,2.3-8,12.6-10.3,17.2l-48.3,91.9C37.3,227.8,21.2,254.2,21.2,258.8z"/>
		<path class="st2" d="M447.6,169.2v-14.9h-18.4v98.8h19.5v-56.3c0-13.8,12.6-25.3,25.3-25.3c3.5,0,5.7,1.2,9.2,2.3
			c1.2-6.9,5.7-12.6,6.9-19.5c-9.2,0-26.4-8-40.2,13.8C448.8,169.2,448.8,168,447.6,169.2z"/>
		<polygon class="st2" points="390.2,253.1 408.5,253.1 408.5,154.2 390.2,154.2 		"/>
		<path class="st2" d="M386.7,120.9c0,8,3.5,14.9,13.8,14.9c14.9-1.2,17.2-25.3,0-26.4c-3.3-1-6.8-0.1-9.2,2.3
			C389,112.8,386.7,116.3,386.7,120.9z"/>
	</g>
</g>
</svg>
