<?xml version="1.0" encoding="utf-8"?>
<!-- Generator: Adobe Illustrator 24.0.2, SVG Export Plug-In . SVG Version: 6.00 Build 0)  -->
<svg version="1.1" id="Layer_1" xmlns="http://www.w3.org/2000/svg" xmlns:xlink="http://www.w3.org/1999/xlink" x="0px" y="0px"
	 viewBox="0 0 492 316" style="enable-background:new 0 0 492 316;" xml:space="preserve">
<style type="text/css">
	.st0{fill-rule:evenodd;clip-rule:evenodd;fill:#B3B3B3;}
	.st1{fill-rule:evenodd;clip-rule:evenodd;fill:#BABABA;}
</style>
<title>technologies-icons-3</title>
<g id="Capa_1">
	<g id="_2312257360112">
		<path class="st0" d="M136.6,272h-16.2c-1-26.7-1.9-51.6-4.8-75.4l0,0L91.8,272H79.3l-23.9-75.4l0,0c-1.9,22.9-2.9,47.7-2.9,75.4
			H38.3c1-33.4,2.9-64.9,6.7-94.5h20l22,69.7l0,0l22.9-69.7H129C132.8,211.8,135.7,243.3,136.6,272z M204.4,202.3
			c-6.7,34.4-15.3,60.1-25.8,75.4c-7.6,12.4-16.2,19.1-26.7,19.1c-3.3-0.3-6.6-1.3-9.6-2.9v-8.6c1.9,1,3.8,1,6.7,1
			c4.1-0.1,8.1-1.4,11.4-3.8c2.9-2.7,4.6-6.5,4.8-10.5c0-2.9-1-7.6-3.8-16.2l-17.2-53.5h15.3l12.4,40.1c2.9,9.6,3.8,15.3,3.8,19.1
			c7-19.1,11.5-39,13.4-59.2L204.4,202.3z"/>
		<path class="st1" d="M413.5,272h-43.9v-94.5h14.3v83.1h29.6V272L413.5,272z M357.2,273.9l-17.2-8.6c1.9-1,2.9-2.9,4.8-3.8
			c6.7-8.6,10.5-21.9,10.5-38.2c0-31.5-11.5-46.8-36.3-46.8c-12.4,0-21,3.8-27.7,11.4c-7.6,8.6-11.4,22-11.4,38.2s3.8,28.6,9.5,36.3
			c6.7,7.6,15.3,10.5,26.7,10.5c4.8,0,8.6,0,12.4-1.9l22.9,13.4L357.2,273.9L357.2,273.9z M301.8,252.9c-3.8-5.7-5.7-16.2-5.7-29.6
			c0-23.9,6.7-35.3,21-35.3c7.6,0,13.4,2.9,17.2,8.6c3.8,5.7,5.7,15.3,5.7,28.6c0,23.9-7.6,36.3-22,36.3
			C310.3,261.5,304.6,258.6,301.8,252.9L301.8,252.9z M273.2,245.2c0,8.6-2.9,15.3-8.6,20c-5.7,4.8-13.4,7.6-23.9,7.6
			c-9.6-0.2-18.9-3.2-26.7-8.6l4.8-8.6c6,3.6,12.9,5.6,20,5.7c5.7,0,9.5-1,13.4-3.8c2.9-1.9,4.8-5.7,4.8-10.5
			c0-5.7-3.8-10.5-10.5-14.3c-6.7-2.9-20-10.5-20-10.5c-7.6-5.7-10.5-11.5-10.5-20.1c0-7.6,1.9-14.3,7.6-19.1s12.4-6.7,21-6.7
			c8.4-0.2,16.7,2.2,23.9,6.7l-3.8,8.6c-5.7-2.5-11.9-3.8-18.1-3.8c-4.8,0-8.6,1-11.4,2.9c-2.6,2.5-4,6-3.8,9.5
			c0,4.8,3.8,9.6,11.5,14.3l20,11.5C269.3,230.9,273.1,236.6,273.2,245.2L273.2,245.2z"/>
		<path class="st0" d="M432.6,146c-8.6,0-16.2,1-22,3.8c-1.9,0-3.8,0-4.8,2.9c1,0.9,1,1.9,1.9,2.9c1.7,2.7,3.6,5.3,5.7,7.6
			c2.9,1.9,4.8,2.9,7.6,4.8c4.8,2.9,9.6,4.8,13.4,6.7c2.7,1.7,5.3,3.6,7.6,5.7c1.9,0.9,1.9,2.9,3.8,2.9l0,0c-0.9-1-0.9-2.9-1.9-3.8
			l-2.9-2.9c-3.8-4.8-7.6-8.6-12.4-11.5c-3.8-2.9-11.5-6.7-12.4-10.5h-1c2.9-1,5.7-1,7.6-1.9c4.8-1,7.6-1,11.5-1.9
			c1.9-1,3.8-1,5.7-1.9v-1c-1.9-1.9-3.8-4.8-5.7-6.7c-5.7-4.8-12.4-9.5-18.1-14.3c-3.8-1.9-8.6-2.9-12.4-4.8c-1-1-3.8-1.9-4.8-2.9
			c-1.9-1.9-2.9-5.7-3.8-8.6c-3.8-5.7-6.7-13.4-9.5-20c-1.9-3.8-3.8-8.6-5.7-12.4c-11.5-19.1-24.8-31.5-43.9-43
			c-4.8-1.9-9.5-2.9-14.3-4.8h-8.6c-1.9-1-3.8-2.9-5.7-3.8c-6.7-3.8-22.9-13.4-27.7-1.9c-2.9,7.6,4.8,15.3,6.7,19.1
			c1.9,2.9,4.8,5.7,5.7,8.6c1,1.9,1,3.8,1.9,5.7c1.9,4.8,3.8,10.5,5.7,15.3c1.9,1.9,2.9,4.8,4.8,6.7c1,1.9,2.9,1.9,2.9,3.8
			c-1.9,2.9-1.9,5.7-2.9,8.6c-3.8,13.4-1.9,28.6,3.8,38.2c1,2.9,5.7,9.6,11.4,6.7c4.8-1.9,3.8-8.6,5.7-14.3c-0.1-1.1,0.2-2.1,1-2.9
			l0,0c0.9,3.8,2.9,6.7,4.8,9.5c2.9,5.7,9.6,11.4,14.3,15.3c2.9,1.9,4.8,5.7,8.6,6.7h-0.9c-0.1-1-0.9-1.8-1.9-1.9
			c-1.9-2.9-4.8-4.8-5.7-7.6c-5-6.3-9.5-13-13.4-20c-1.9-3.8-2.9-7.6-4.8-11.5c-0.9-0.9-0.9-2.9-1.9-3.8c-1.9,2.9-3.8,4.8-5.7,7.6
			c-1.9,4.8-1.9,11.5-2.9,17.2l0,0c-3.8-1-4.8-4.8-6.7-7.6c-2.9-7.6-3.8-21-1-30.6c1-1.9,3.8-9.6,2.9-11.5c-1-2.9-2.9-3.8-3.8-5.7
			c-1.9-2-3.5-4.2-4.8-6.7c-2.9-6.7-3.8-13.4-6.7-20c-1-2.9-3.8-5.7-5.7-8.6s-4.8-5.7-6.7-8.6c0-1.9-1-3.8,0-4.8
			c0.1-1,0.9-1.8,1.9-1.9c1-1,5.7,0,6.7,1c4.8,1.9,7.6,3.8,11.5,5.7c1.9,1,2.9,3.8,4.8,3.8h2.9c3.8,1,7.6,0,11.4,1
			c5.9,1.9,11.4,4.8,16.2,8.6c14.6,9.8,26.7,22.8,35.4,38.1c0.8,2.6,1.7,5.2,2.9,7.6c2.9,5.5,5.5,11.3,7.6,17.2
			c2.9,5.7,4.8,10.5,8.6,15.3c1.9,1.9,8.6,3.8,11.5,4.8c1.9,1,5.7,1.9,7.6,2.9c3.6,2.9,7.4,5.4,11.5,7.6
			C426.9,141.2,432.6,144,432.6,146L432.6,146z M317.1,47.6h-4.8v1l0,0c1,1.9,2.9,2.9,3.8,4.8c1.2,1.5,2.1,3.1,2.9,4.8l0,0
			c1.9-1,1.9-2.9,1.9-5.7c0-1,0-1.9-1-1.9C318.9,48.6,318,48.6,317.1,47.6L317.1,47.6z"/>
	</g>
</g>
</svg>
