<?xml version="1.0" encoding="utf-8"?>
<!-- Generator: Adobe Illustrator 24.0.2, SVG Export Plug-In . SVG Version: 6.00 Build 0)  -->
<svg version="1.1" id="Layer_1" xmlns:xodm="http://www.corel.com/coreldraw/odm/2003"
	 xmlns="http://www.w3.org/2000/svg" xmlns:xlink="http://www.w3.org/1999/xlink" x="0px" y="0px" viewBox="0 0 502 300"
	 style="enable-background:new 0 0 502 300;" xml:space="preserve">
<style type="text/css">
	.st0{fill-rule:evenodd;clip-rule:evenodd;fill:#575757;}
</style>
<g id="Layer_x0020_1">
	<g id="_2171649853600">
		<path class="st0" d="M118.2,218.8h96v-7.5h-86.7v-61.6H207c1.9,0,1.3-2.1,1.3-6.7c0-1-0.3-1.3-1.3-1.3h-79.6V85.5h85.9V78h-95.1
			L118.2,218.8L118.2,218.8z"/>
		<path class="st0" d="M380.5,3.8c-1.7,1.1-14.4,17.9-16.6,20.7c-1.2,1.5-2.1,2.6-3.3,4.2c-1.2,1.6-2.1,2.6-3.4,4.2l-36.3,46.2
			c-2.2,3-4.1,5.7-6.4,8.7l-16,21.7c-1.2,1.6-2.1,2.7-3.2,4.3c-4.7,6.9-13.5,17.8-17.6,23.9c-0.7,1.1-0.6,1.5-1.9,1.8
			c-0.4-1.6-1.5-2.5-2.4-3.9c-1-1.4-1.7-2.5-2.8-3.9l-5.6-7.8c-3.8-5.1-7.2-10.2-11.1-15.3L231.7,78h-10.1c0.4,1.4,0.5,1,1.2,2.1
			l4.7,6.6c10.1,13.4,20.6,29.3,30.7,42.6l9.3,12.9c1.2,1.7,2.1,2.7,3,4.5l-3.3,4.3c-1.1,1.7-2.2,3-3.4,4.6c-2.3,3-4.2,5.9-6.5,9
			l-9.9,13.5c-1.2,1.6-2.2,3-3.4,4.6l-26.3,36.1c13.9,0,8.5,2.3,19-11.6l25.9-35.7c1-1.5,12.5-16.5,12.9-18.1
			c1.2,0.3,1.2,0.6,1.8,1.5l13.4,18.5c1,1.5,1.9,2.5,3,4.1l26.8,36.9c0.8,1.1,2.5,3.2,2.8,4.3h10.9L282,146.3
			c0.3-0.4,0.4-0.4,0.7-0.9c0.3-0.5,0.4-0.5,0.7-1l4.7-6.6c7.9-10.8,16.8-24.9,24.7-35.7l61.8-89.1C375.8,11.1,380.1,5.2,380.5,3.8
			L380.5,3.8z"/>
		<path class="st0" d="M157.6,296.7c-0.4-1.6-3.3-5.3-4.4-7l-59.4-88.5C93,200.1,11.8,80,11.3,78H0v140.8h8.8
			c0-43.2,0.4-85.9,0.4-129.5c4,4.6,21.9,32.1,27.3,39.3c3.2,4.3,5.8,8.9,9,13.2c4.8,6.4,12.8,18.8,18.1,26.3l13.5,19.6
			c0.8,1.1,1.4,2,2.2,3.2l20.6,29.7C102.5,224,156,295.7,157.6,296.7z"/>
		<polygon class="st0" points="338.2,85.5 387.6,85.5 387.6,218.8 396.4,218.8 396.4,85.5 446.3,85.5 446.3,78 338.2,78 		"/>
		<path class="st0" d="M479.4,185.7c0,3.1-0.3,4.6,2.6,7c1.5,1.3,3,1.7,5.2,2.4c3.2,0.9,9.8,1.7,9.8,5.3c0,1.5-0.6,2.3-1.5,3.1
			c-2.5,2.1-9.2,2.7-11.7-1.7c-1-1.7,0.6-1.4-5.3-1.4c0,12.5,23.5,12.1,23.5,0c0-12-17.6-7.8-17.6-13.4c0-3.3,1.2-5,6.3-5
			c3.1,0,5.6,1.7,5.9,4.6h5C500.5,173.9,479.4,175.2,479.4,185.7L479.4,185.7z"/>
		<path class="st0" d="M467.6,197c0,3.4-0.2,8-4.6,8c-2.7,0-4.4-1.6-4.6-4.2h-5c0.3,12,18.9,11.4,18.9,0.4v-23.1h-4.6L467.6,197
			L467.6,197z"/>
		<path class="st0" d="M445,209.1c1.8,0,3.4-1.3,3.4-2.9c0-2.9-3.2-4.7-5.4-2.9C440.7,205.3,442.3,209.1,445,209.1L445,209.1z"/>
		<path class="st0" d="M380.5,3.8c1.1-0.7,0.9-0.2,1.3-1.7C380.6,2.9,380.9,2.3,380.5,3.8z"/>
		<path class="st0" d="M158.4,298c-0.3-1.2,0.1-0.6-0.8-1.3C157.8,297.9,157.5,297.3,158.4,298z"/>
		<polygon class="st0" points="382.6,0.9 383,0.9 382.6,0.4 		"/>
		<polygon class="st0" points="159.2,299.2 159.2,299.6 159.7,299.3 		"/>
		<path class="st0" d="M382.2,1.7l0.4-0.8L382.2,1.7z"/>
		<path class="st0" d="M382.2,1.7l-0.4,0.4L382.2,1.7z"/>
		<path class="st0" d="M158.8,298.4l-0.4-0.4L158.8,298.4z"/>
		<path class="st0" d="M159.2,299.2l-0.4-0.8L159.2,299.2z"/>
	</g>
</g>
</svg>
