<?xml version="1.0" encoding="utf-8"?>
<!-- Generator: Adobe Illustrator 24.0.2, SVG Export Plug-In . SVG Version: 6.00 Build 0)  -->
<svg version="1.1" id="Layer_1" xmlns="http://www.w3.org/2000/svg" xmlns:xlink="http://www.w3.org/1999/xlink" x="0px" y="0px"
	 viewBox="0 0 732.4 316" style="enable-background:new 0 0 732.4 316;" xml:space="preserve">
<style type="text/css">
	.st0{fill-rule:evenodd;clip-rule:evenodd;fill:#B8B8B8;}
</style>
<title>technologies-icons-3</title>
<g id="Capa_1">
	<path class="st0" d="M139.2,184.6H90.5c-12.4,0-24.8-11.4-24.8-24.8c0-8.6,2.9-14.3,8.6-20.1c5.1-4.9,12-7.7,19.1-7.6h43
		c25.8,0,37.2,31.5,17.2,47.7C149.3,182.8,144.3,184.5,139.2,184.6z M50.4,158.8c0,14.3,6.7,22.9,14.3,30.6
		c4.8,5.7,16.2,9.5,24.8,9.5h50.6c3.8,0,6.7,0,9.6-0.9c11.5-3.8,22-12.4,26.7-23.9c1-4.8,2.9-11.4,2.9-17.2
		c-0.9-3.8-0.9-4.8-1.9-8.6c-1-5.7-3.8-9.6-6.7-14.3c-8.6-10.5-20.1-16.2-34.4-16.2h-43c-10.5,0-21,2.9-28.6,10.5
		c-2.9,1.9-3.8,2.9-6.7,6.7C52.9,141.9,50.3,150.3,50.4,158.8z"/>
	<path class="st0" d="M583.1,156.9c0,9.5,0.9,14.3,5.7,22l2.9,4.8c14.3,18.1,28.6,15.3,48.7,15.3h31.5l4.8-6.7
		c1-0.9,3.8-6.7,3.8-7.6c-6.7,0-57.3,1-61.1,0c-3.4-0.7-6.6-2-9.5-3.8c-2.1-2-4.1-4.3-5.7-6.7c-1.9-0.9-3.8-5.7-4.8-7.6h66.8
		l9.6-15.3h-76.4c0.9-4.8,5.7-10.5,9.5-13.4c4.7-3.6,10.3-5.6,16.2-5.7h45.8c1-1.9,8.6-12.4,8.6-14.3h-33.4
		c-17.2,0-30.6-1.9-43.9,6.7C591.7,131.1,583.1,143.6,583.1,156.9z"/>
	<path class="st0" d="M186.9,118.7v80.2h16.2v-66.8h50.6c14.3,0,18.1,18.1,7.6,24.8c-4.8,2.9-9.6,1.9-16.2,1.9h-34.4l2.9,2.9
		l29.6,25.8c3.8,2.9,7.6,6.7,11.4,9.5c1.9,1.9,1,2.9,3.8,2.9l21-1l-7.6-5.7c-1-1.9-2.9-2.9-3.8-3.8l-19.1-16.2
		c10.5,0,18.1,0,25.8-7.6c1-0.9,1-1.9,1.9-1.9c8.6-9.6,8.6-24.8,1-34.4c-1-1.9-1.9-1.9-2.9-3.8c-4.8-4.8-11.4-7.6-21-7.6h-65.9
		C186.9,117.8,186.9,117.8,186.9,118.7z"/>
	<path class="st0" d="M283.3,198.9h19.1c1.5-2.6,3-5.2,4.8-7.6l20-31.5c1.9-2.9,2.9-5.7,4.8-8.6l7.6-11.5c1-0.9,1.9-3.8,2.9-3.8
		c3.8,6.7,13.4,21,19.1,29.6c0.9,1.9,1.9,3.8,1.9,4.8h-41.1c0,1,3.8,5.7,4.8,7.6l4.8,7.6h42c0.9,1.9,2.9,3.8,3.8,6.7l4.8,6.7h19.1
		l-48.7-75.4c-0.8-1.7-2.1-3.1-3.8-3.8c-6.7-4.8-13.4-2.9-17.2,3.8l-16.2,24.9c0,1-0.9,1.9-0.9,2.9c-4.8,7.6-11.5,16.2-16.2,23.9
		c0,0.9-0.9,1.9-0.9,2.9c-1.9,1.9-2.9,2.9-3.8,5.7L283.3,198.9z"/>
	<path class="st0" d="M393.1,156.9c0,7.6,0,12.4,3.8,19.1c1.7,4.3,4.3,8.2,7.6,11.5c7.5,7.2,17.4,11.3,27.7,11.4h49.6
		c0.9,0,0.9-0.9,1.9-2.9l4.8-7.6c1.2-1.1,2.2-2.4,2.9-3.8H439c-11.5,0-15.3,0-23.9-8.6c-1-0.9-1-1.9-2.9-2.9
		c-9.6-14.3-1-36.3,17.2-40.1c6.7-0.9,42-0.9,51.6-0.9l7.6-12.4c1-1,1-1,1-1.9h-33.4c-17.2,0-30.6-1.9-43.9,6.7
		C401.7,131.1,393.1,143.6,393.1,156.9z"/>
	<path class="st0" d="M498.1,192.2c0,3.8,3.8,6.7,6.7,6.7h72.6c1,0,5.7-8.6,6.7-10.5c1,0,1-0.9,1.9-1.9c0.1-0.7,0.4-1.4,0.9-1.9
		h-72.6v-65.9c0-0.5-0.4-0.9-0.9-1c0,0,0,0-0.1,0h-15.3L498.1,192.2z"/>
</g>
</svg>
