<?xml version="1.0" encoding="utf-8"?>
<!-- Generator: Adobe Illustrator 24.0.2, SVG Export Plug-In . SVG Version: 6.00 Build 0)  -->
<svg version="1.1" id="Layer_1" xmlns="http://www.w3.org/2000/svg" xmlns:xlink="http://www.w3.org/1999/xlink" x="0px" y="0px"
	 viewBox="0 0 318.8 315.4" style="enable-background:new 0 0 318.8 315.4;" xml:space="preserve">
<style type="text/css">
	.st0{fill-rule:evenodd;clip-rule:evenodd;fill:#B3B3B3;}
</style>
<title>technologies-icons-1</title>
<g id="Capa_1">
	<g id="_2312253124384">
		<path class="st0" d="M231.8,211c1,6.9,3.9,14.8,3.9,25.6c0,22.7-1,48.3-30.6,37.5c-12.8-4.9-19.7-10.8-29.6-18.7
			c-3-2-4.9-4.9-7.9-6.9l22.7-28.6c3-4.9,5.9-3,19.7-4.9L231.8,211z M99.8,276h-3.9c-17.7,0-16.8-33.5-14.8-49.3l2.9-15.8
			c2,0,23.7,4.9,33.5,4.9c8.9,1,4.9,0,13.8,10.9c2,2.9,3.9,4.9,5.9,7.9l11.8,13.8c-1,1-3,2-4.9,3.9l-4.9,4.9
			c-3.7,3-7.7,5.6-11.8,7.9C121.4,269.1,109.6,276,99.8,276L99.8,276z M174.7,217.8c-2.9,6.9-12.8,16.8-15.8,20.7
			c-3.9-3-4.9-4.9-6.9-6.9c-1-1-1-2-2-3c-3-3-6.9-6.9-8.9-10.9L174.7,217.8z M96.8,172.5l8.9,15.8c1,2,2.9,4.9,3.9,6.9
			c2,3,3,4.9,4.9,6.9c-7.9,0-22.7-2.9-26.6-2.9C87.9,192.2,95.8,178.4,96.8,172.5L96.8,172.5z M201.3,202l12.8-21.7
			c2-2,3-3.9,3.9-7.9h1c1,4.9,7.9,17.8,9.9,25.6C224.9,198.2,209.2,202.1,201.3,202L201.3,202z M75.1,195.2
			c-3.9,0-12.8-3.9-16.7-5.9c-5.1-1.9-10.1-4.2-14.8-6.9c-9.9-6.9-27.6-19.7-17.7-33.5c0.4-1.1,1.1-2.2,2-3
			c7.9-9.9,19.7-15.8,30.6-19.7c4.9-2,11.8-4.9,16.7-5.9c1,2.9,2,6.9,3,8.9L90,157.8l-7.9,17.7C80,181.4,77.1,189.2,75.1,195.2z
			 M240.7,120.3c1,1,5.9,2,7.9,2.9c2.9,1,4.9,2,7.9,3c7.9,3,8.9,3.9,14.8,6.9c7.9,3.9,21.7,13.8,21.7,24.6
			c0,13.8-24.6,26.6-35.5,30.6c-4.9,2-11.8,4.9-16.8,5.9c0-3-2-5.9-3-8.9l-10.8-27.6C225.9,155.8,239.7,127.2,240.7,120.3
			L240.7,120.3z M184.5,204.1l-31.5,1c-8.9,0-13.8-1-21.7-1c0,0-26.6-41.4-26.6-46.3c0-3.9,17.7-34.5,22.7-40.4
			c6.9-10.8,4.9-4.9,17.7-6.9c3.9-1,37.5-1,40.4,2s23.7,38.4,25.6,43.4c1,2,0,3-2,6.9c-1.5,2.2-2.8,4.5-3.9,6.9
			C200.3,179.4,190.4,195.2,184.5,204.1z M202.2,113.4c4.9,0,20.7,2.9,25.6,3.9l-6.9,18.7c-1,2-1,4.9-3,5.9c-0.7-2.6-2.1-5-3.9-6.9
			l-11.8-20.7l0,0L202.2,113.4z M96.8,142c-1-3.9-7.9-19.7-8.9-24.6c3-1,21.7-3.9,26.6-3.9l-12.8,21.7C99.8,138,99.8,139,96.8,142z
			 M141.2,97.6c2-3.9,4.9-6.9,7.9-10.8c2-2,6.9-7.9,8.9-9.8c2,1,1,1,2,2c1,2,2,2,2.9,2.9l11.8,15.8c-2.9,0-2.9-1-6.9-1h-19.7
			C144.1,96.6,144.1,97.6,141.2,97.6L141.2,97.6z M217.1,38.5c6.9,0,10.8,2,14.8,9.8c4.9,11.8,3.9,30.6,2,43.4l-2,12.8
			c-4.9-2-33.5-5.9-39.4-5.9c-2-3-3.9-4.9-5.9-7.9c-7.9-10.8-10.8-13.8-18.7-22.7c2-3,6.9-6.9,9.9-9.9
			C186.5,50.3,203.3,38.5,217.1,38.5z M85,104.5c-2-3-3.9-14.8-3.9-18.7c-2-11.8-2-27.6,2.9-37.5c7.9-18.7,31.5-4.9,42.4,1
			c10.8,6.9,18.7,14.8,22.7,17.7l-22.7,28.6c-3,3.9-3,3-8.9,3l-21.7,3.9C91.9,102.5,87.9,104.5,85,104.5L85,104.5z M66.2,70
			c0,18.7,4.9,33.5,4.9,38.4c-26.6,5.9-81.8,32.5-53.2,69c3.9,4.9,8.9,8.9,14.8,12.8c3,2,4.9,2.9,7.9,4.9c6.9,4,24.6,11.8,30.6,12.8
			c0,7.9-4.9,16.8-4.9,36.5c0,13.8,3.9,31.5,14.8,39.4c19.7,14.8,49.3-3.9,65-15.8l11.8-10.8c2.2,1.4,4.1,3.1,5.9,4.9
			c7.9,7.9,24.6,18.7,35.5,23.7c16.8,5.9,31.5,6.9,42.4-9.9c9.9-14.8,7.9-43.4,4.9-62.1c-1-3-2-4.9-2-6.9c8.9-1,30.6-11.8,37.5-16.8
			c4.9-3,11.8-8.9,14.8-12.8c7.9-8.9,8.9-10.8,8.9-22.7c0-12.8-17.7-27.6-27.6-32.5c-9.9-5.9-23.7-11.8-34.5-13.8
			c3.9-15.8,6.9-33.5,3.9-51.3c-2-14.8-10.8-31.5-26.6-31.5c-16.8,0-23.7,3.9-38.4,12.8c-7.9,4.9-11.8,8.9-18.7,13.8
			c-2,2-3,4-5.9,5.9c-5.9-5.6-12.2-10.9-18.7-15.8c-2-1-3.9-3-6.9-4.9C106.6,22.7,76,15.8,68.1,53.2C66.9,58.8,66.3,64.4,66.2,70
			L66.2,70z"/>
		<path class="st0" d="M157.9,184.4c9.9,0,19.7-6.9,23.6-15.8c9.9-19.7-7.9-37.4-20.7-37.4c-9.9,0-15.8,0-22.7,8.9
			C122.4,156.8,136.2,184.4,157.9,184.4z"/>
	</g>
</g>
</svg>
